<svg width="262" height="302" viewBox="0 0 262 302" fill="none" xmlns="http://www.w3.org/2000/svg">
<path d="M182.339 260.806H101.819C88.0084 260.806 76.71 249.553 76.71 235.798V164.94C76.71 151.185 88.0084 139.931 101.819 139.931H182.34C196.15 139.931 207.448 151.185 207.448 164.94V235.798C207.448 249.552 196.149 260.806 182.339 260.806Z" fill="white"/>
<path d="M182.339 139.93C196.149 139.93 207.448 151.184 207.448 164.939V235.797C207.448 249.552 196.149 260.805 182.339 260.805H101.819C88.0089 260.805 76.7104 249.552 76.7104 235.797V164.939C76.7104 151.184 88.0089 139.93 101.819 139.93H182.339ZM182.339 135.977H101.819C97.9081 135.977 94.106 136.748 90.5183 138.266C87.0598 139.729 83.9517 141.82 81.2802 144.482C78.6086 147.143 76.5086 150.239 75.039 153.683C73.515 157.256 72.7417 161.043 72.7417 164.939V235.797C72.7417 239.692 73.515 243.479 75.039 247.053C76.5086 250.497 78.6075 253.593 81.2802 256.254C83.9517 258.915 87.0609 261.006 90.5183 262.47C94.106 263.988 97.9081 264.758 101.819 264.758H182.34C186.251 264.758 190.053 263.988 193.641 262.47C197.099 261.006 200.208 258.916 202.879 256.254C205.551 253.593 207.651 250.496 209.12 247.053C210.644 243.479 211.418 239.692 211.418 235.797V164.939C211.418 161.043 210.644 157.256 209.12 153.683C207.651 150.238 205.552 147.143 202.879 144.482C200.208 141.821 197.098 139.729 193.641 138.266C190.053 136.748 186.25 135.977 182.339 135.977Z" fill="#317F8B"/>
<path d="M205.647 216.991C193.11 218.455 180.615 218.815 180.615 218.815C180.615 218.815 174.251 187.21 172.487 162.427C171.187 144.064 172.409 129.451 180.615 134.217C184.389 136.41 188.737 140.54 193.27 145.779C210.274 165.437 229.809 200.735 230.88 208.059C231.572 212.77 218.592 215.471 205.647 216.991Z" fill="white"/>
<path d="M178.936 220.921L178.594 219.221C178.555 219.027 174.663 199.607 172.145 179.499C170.66 167.643 169.934 157.855 169.986 150.407C170.057 140.233 171.541 134.463 174.653 132.248C176.02 131.276 178.344 130.521 181.655 132.445C192.571 138.787 206.424 158.992 213.71 170.471C218.57 178.129 223.223 186.178 226.812 193.135C229.34 198.037 232.453 204.553 232.924 207.762C233.061 208.694 232.969 210.107 231.756 211.545C230.002 213.626 226.358 215.254 220.288 216.668C215.838 217.705 210.119 218.597 203.291 219.32C191.73 220.543 180.784 220.868 180.676 220.871L178.936 220.921ZM177.773 135.362C177.375 135.362 177.166 135.511 177.052 135.591C175.706 136.549 171.671 142.505 176.236 178.969C178.305 195.483 181.306 211.538 182.304 216.699C185.824 216.558 194.176 216.152 202.878 215.231C223.08 213.09 227.593 210.092 228.597 208.903C228.874 208.574 228.852 208.422 228.842 208.356C228.255 204.364 220.634 189.069 210.224 172.667C198.166 153.672 186.997 140.304 179.577 135.993C178.735 135.504 178.163 135.362 177.773 135.362Z" fill="#317F8B"/>
<path d="M116.822 133.051L114.285 152.17L112.841 163.039L109.762 186.246C109.762 186.246 104.136 190.058 94.7764 193.078C91.2794 194.208 87.2517 195.219 82.8067 195.882C75.5405 196.971 67.1392 197.11 58.0372 195.255C34.6193 190.478 20.5654 173.153 14.4807 164.442C2.72077 147.628 0.911025 143.083 4.18014 136.005C6.67591 130.58 10.952 129.59 10.952 129.59C10.952 129.59 10.741 125.255 14.1859 123.713C24.5103 119.095 37.8102 131.428 37.8102 131.428C37.8102 131.428 38.3057 118.166 45.4324 121.228C50.3423 123.338 51.4558 137.778 51.4558 137.778C51.4558 137.778 58.0462 146.212 68.5158 147.331C73.987 147.916 81.5582 146.335 89.0773 144.039C89.1646 144.013 89.2531 143.988 89.3404 143.957C93.3477 142.725 97.3289 141.296 100.974 139.883C102.61 139.252 104.177 138.619 105.646 138.014C112.216 135.301 116.822 133.051 116.822 133.051Z" fill="white"/>
<path opacity="0.35" d="M14.4776 164.442C20.5679 173.15 34.6195 190.479 58.0351 195.255C72.7024 198.243 85.5555 196.048 94.7777 193.074C104.137 190.058 109.763 186.244 109.763 186.244L110.175 167.93C110.175 167.93 103.798 161.809 97.8586 164.305C90.7216 167.304 93.0088 177.496 82.8159 180.331C54.4802 188.212 31.4615 173.813 24.0547 167.492C13.7791 158.724 11.0985 153.201 9.6527 150.922C6.66027 146.206 4.34932 142.501 3.04644 139.183C1.71861 144.796 4.55343 150.247 14.4776 164.442Z" fill="#317F8B"/>
<path d="M72.1659 198.732C67.2764 198.732 62.4073 198.243 57.6221 197.266C47.0959 195.119 37.2749 190.286 28.4337 182.897C22.7437 178.142 17.4788 172.327 12.7867 165.616C7.06032 157.425 3.42041 151.798 1.76035 147.278C0.169445 142.947 0.327061 139.432 2.30236 135.145C4.24705 130.923 7.18732 128.982 8.96418 128.149C9.25447 125.979 10.385 123.163 13.34 121.842C21.7356 118.085 31.4239 123.898 36.2193 127.476C36.2658 127.234 36.3179 126.985 36.3735 126.733C37.1684 123.182 38.5404 120.772 40.4511 119.572C41.6247 118.834 43.583 118.196 46.2534 119.345C48.9623 120.51 50.9388 123.942 52.2972 129.837C52.9923 132.857 53.3268 135.692 53.4527 136.948C54.9109 138.592 60.61 144.42 68.738 145.288C83.5755 146.872 115.591 131.363 115.913 131.206C116.595 130.872 117.407 130.94 118.024 131.383C118.641 131.825 118.964 132.57 118.866 133.32L111.81 186.512C111.733 187.093 111.412 187.612 110.926 187.941C110.69 188.101 105.032 191.9 95.6234 194.961C90.1125 196.755 84.4429 197.923 78.7733 198.434C76.5701 198.633 74.3657 198.732 72.1659 198.732ZM11.4293 131.585C11.1629 131.657 8.01395 132.597 6.05113 136.857C3.40794 142.595 4.05768 145.939 16.1714 163.267C27.5606 179.557 42.1792 189.922 58.4488 193.24C73.2726 196.264 86.1483 193.72 94.3398 191.055C101.284 188.795 106.073 186.099 107.844 185.023L114.28 136.504C110.918 138.033 105.418 140.435 99.2463 142.739C85.5077 147.867 75.0937 150.098 68.2981 149.373C57.0869 148.177 50.1201 139.413 49.8287 139.04C49.5803 138.722 49.4306 138.338 49.4 137.936C49.3978 137.902 49.1177 134.395 48.265 130.711C46.8283 124.5 45.1092 123.327 44.6171 123.116C43.3857 122.586 42.8539 122.919 42.6532 123.045C40.9194 124.131 39.9805 128.646 39.8671 131.505C39.8354 132.307 39.3364 133.018 38.5914 133.324C37.8453 133.63 36.9903 133.477 36.3996 132.929C36.2771 132.816 23.9774 121.585 15.0296 125.589C12.9681 126.512 13.0055 129.295 13.0112 129.495C13.0724 130.509 12.4261 131.375 11.4293 131.585Z" fill="#317F8B"/>
<path d="M39.5071 131.426C39.5547 132.003 39.4686 132.528 39.3529 132.983C39.2951 133.218 39.2236 133.421 39.1511 133.63C39.0774 133.826 38.9969 134.025 38.9175 134.202C38.592 134.931 38.2405 135.536 37.906 136.122C37.5704 136.705 37.2472 137.259 36.9467 137.815L36.7267 138.233C36.6576 138.373 36.5839 138.512 36.517 138.653L36.3219 139.078L36.136 139.507L35.967 139.943L35.8105 140.385C35.7572 140.533 35.7175 140.685 35.6699 140.835C35.62 140.985 35.5826 141.139 35.5418 141.291C35.3853 141.906 35.2504 142.538 35.1721 143.19C35.0871 143.84 35.0326 144.508 35.0168 145.186C34.9998 145.528 35.0066 145.869 35.0032 146.216C34.9975 146.39 35.0122 146.562 35.0134 146.737C35.0168 146.912 35.0224 147.087 35.0213 147.265V147.277C35.0213 147.414 34.9102 147.524 34.7718 147.524C34.6755 147.524 34.5927 147.47 34.5519 147.39C34.2208 146.751 33.9214 146.087 33.6901 145.393C33.4463 144.702 33.2717 143.981 33.1435 143.244C32.8918 141.769 32.8975 140.208 33.1741 138.683L33.2887 138.114C33.3329 137.927 33.3817 137.74 33.4281 137.552C33.478 137.365 33.5336 137.182 33.5858 136.996C33.6402 136.812 33.7048 136.632 33.7649 136.451C34.0133 135.728 34.3205 135.041 34.6369 134.397C34.9521 133.755 35.2878 133.148 35.5599 132.622C35.8468 132.089 36.009 131.656 36.1042 131.422L36.3038 130.933C36.6508 130.085 37.6225 129.678 38.4741 130.023C39.0762 130.269 39.4561 130.824 39.5071 131.426Z" fill="#317F8B"/>
<path d="M55.7696 196.666C55.2491 196.666 54.7468 196.379 54.4996 195.883C54.1503 195.185 54.4361 194.338 55.1369 193.99C60.8553 191.156 64.7628 182.313 66.4342 168.416C67.7303 157.646 67.1917 147.629 67.186 147.53C67.1429 146.752 67.7405 146.086 68.5218 146.041C69.2996 145.997 69.972 146.594 70.0163 147.372C70.0219 147.474 70.5742 157.704 69.2531 168.714C68.4719 175.23 67.1962 180.758 65.4613 185.146C63.2161 190.824 60.167 194.651 56.4001 196.518C56.1971 196.618 55.9816 196.666 55.7696 196.666Z" fill="#317F8B"/>
<g opacity="0.35">
<g opacity="0.35">
<g opacity="0.35">
<g opacity="0.35">
<path opacity="0.35" d="M238.704 287.537V287.249C236.437 287.346 238.704 287.537 238.704 287.537Z" fill="#317F8B"/>
</g>
</g>
</g>
</g>
<path d="M210.094 252.854H73.9204C73.9204 252.854 74.7504 229.448 82.8059 195.881C86.0342 182.418 90.4281 167.322 96.3949 151.444C97.8281 147.633 99.3555 143.776 100.975 139.882C105.503 129.018 110.783 117.892 116.942 106.767H167.074C172.164 115.966 176.655 125.16 180.616 134.216C183.179 140.071 185.52 145.865 187.656 151.556C196.974 176.366 202.447 199.264 205.649 216.99C209.598 238.858 210.094 252.854 210.094 252.854Z" fill="white"/>
<path d="M191.399 169.013C194.031 171.94 195.234 175.346 196.346 178.767C196.904 180.478 197.453 182.192 197.978 183.915C198.242 184.775 198.511 185.635 198.746 186.503C198.988 187.369 199.222 188.239 199.458 189.108L200.148 191.718C200.374 192.588 200.604 193.458 200.817 194.333L202.07 199.585C202.274 200.461 202.497 201.332 202.697 202.21L203.294 204.841L203.908 207.469C204.114 208.345 204.327 209.219 204.52 210.097L205.702 215.364C205.905 216.24 206.079 217.123 206.266 218.003L206.82 220.645L207.096 221.965L207.235 222.626L207.364 223.288L207.882 225.936C208.055 226.819 208.233 227.701 208.42 228.581C208.599 229.463 208.779 230.345 208.967 231.226C209.757 234.742 210.333 238.303 210.572 241.91C210.602 242.361 210.638 242.81 210.659 243.263L210.717 244.62C210.746 245.526 210.771 246.43 210.758 247.342C210.752 248.251 210.732 249.161 210.673 250.075C210.619 250.988 210.544 251.902 210.405 252.823C210.379 253 210.212 253.122 210.034 253.096C209.913 253.078 209.818 252.995 209.777 252.889L209.776 252.885C209.125 251.162 208.593 249.432 208.091 247.702C207.844 246.837 207.606 245.969 207.375 245.103L207.044 243.801C206.94 243.366 206.832 242.932 206.723 242.498C206.301 240.759 205.93 239.017 205.595 237.266C205.434 236.39 205.288 235.511 205.154 234.63C205.01 233.75 204.877 232.869 204.74 231.989C204.606 231.107 204.466 230.227 204.323 229.347C204.171 228.468 204.002 227.593 203.831 226.718L203.317 224.092L203.189 223.436L203.052 222.781L202.777 221.472L202.228 218.853C202.042 217.981 201.869 217.105 201.668 216.236L200.496 211.013C200.308 210.142 200.088 209.276 199.88 208.409L199.239 205.81L198.583 203.216C198.476 202.783 198.355 202.353 198.239 201.923L197.887 200.632L196.47 195.471C195.981 193.755 195.479 192.043 195.002 190.324C194.764 189.464 194.526 188.605 194.294 187.743L194.122 187.097L193.939 186.454L193.58 185.165C193.1 183.447 192.646 181.721 192.198 179.993L191.869 178.695C191.759 178.262 191.638 177.833 191.522 177.401C191.292 176.539 191.099 175.664 190.954 174.776C190.81 173.886 190.709 172.982 190.67 172.058C190.65 171.596 190.648 171.129 190.665 170.654C190.683 170.18 190.713 169.7 190.797 169.204L190.801 169.185C190.833 168.998 191.011 168.871 191.199 168.903C191.279 168.917 191.35 168.958 191.399 169.013Z" fill="#317F8B"/>
<path d="M73.601 252.844C73.3912 252.379 73.2472 251.917 73.1123 251.453C72.9774 250.987 72.8764 250.528 72.7869 250.065C72.6054 249.139 72.5079 248.218 72.4535 247.3C72.4285 246.84 72.4115 246.382 72.4127 245.924C72.4138 245.467 72.4319 245.012 72.4535 244.557L72.5306 243.191C72.5544 242.736 72.5827 242.281 72.6202 241.827C72.7619 240.011 72.9002 238.192 73.1134 236.385C73.2098 235.48 73.3175 234.576 73.4241 233.671C73.4763 233.22 73.5466 232.77 73.6078 232.318L73.7994 230.967L74.1997 228.266C74.3403 227.367 74.5036 226.473 74.6567 225.576C74.9697 223.784 75.2645 221.989 75.6217 220.206C75.9686 218.42 76.2861 216.63 76.6411 214.848C77.0017 213.067 77.3532 211.283 77.7002 209.499C77.7886 209.053 77.868 208.606 77.9644 208.162L78.2501 206.829L78.8205 204.164L79.3908 201.498C79.4396 201.276 79.4838 201.053 79.5348 200.832L79.6913 200.169L80.0043 198.842L81.255 193.535C81.3559 193.092 81.4693 192.652 81.5816 192.211C81.6904 191.77 81.8016 191.329 81.9059 190.888C82.1168 190.003 82.3254 189.119 82.5261 188.232C82.7314 187.347 82.9321 186.459 83.1441 185.575C83.3482 184.688 83.6045 183.816 83.8608 182.943C84.1227 182.073 84.4005 181.206 84.6919 180.344C84.9845 179.482 85.2952 178.625 85.6093 177.77L86.0946 176.491C86.1763 176.279 86.267 176.069 86.3554 175.858C86.445 175.647 86.5312 175.436 86.6242 175.226C86.9904 174.387 87.3612 173.551 87.7558 172.723C88.1459 171.893 88.553 171.07 88.9805 170.255C89.4079 169.439 89.8513 168.629 90.3434 167.837C90.4375 167.684 90.6383 167.637 90.7913 167.732C90.8957 167.796 90.9512 167.91 90.9455 168.025V168.03C90.7414 171.757 90.0407 175.303 89.349 178.848C89.171 179.733 88.9895 180.616 88.79 181.494C88.5893 182.372 88.3738 183.245 88.1448 184.113C87.6662 185.846 87.1855 187.577 86.6843 189.305C86.4337 190.169 86.1899 191.034 85.9483 191.901C85.8259 192.333 85.7113 192.768 85.5945 193.202C85.48 193.637 85.3621 194.07 85.2646 194.51L84.0275 199.76L83.7179 201.072L83.5637 201.729C83.5127 201.948 83.4684 202.168 83.4208 202.387L82.8561 205.024L82.2914 207.661L82.0091 208.981C81.915 209.42 81.8356 209.863 81.7483 210.303C80.2991 217.349 79.3251 224.48 78.3782 231.597L78.0108 234.264C77.8963 235.154 77.7818 236.044 77.6571 236.933L76.9268 242.267C76.7941 243.156 76.6876 244.045 76.5674 244.934C76.505 245.378 76.4392 245.823 76.3565 246.265C76.2748 246.708 76.1943 247.151 76.0945 247.592C75.8961 248.476 75.65 249.357 75.3586 250.235C75.2135 250.675 75.04 251.115 74.8619 251.553C74.6794 251.991 74.4809 252.432 74.236 252.869L74.2337 252.873C74.1385 253.043 73.9242 253.104 73.7541 253.009C73.6827 252.968 73.6316 252.91 73.601 252.844Z" fill="#317F8B"/>
<path d="M113.141 223.323C105.374 226.455 93.3546 225.8 85.1609 224.811C80.2464 224.22 76.7959 219.702 77.5205 214.824C78.1816 210.373 82.1151 207.136 86.627 207.346C94.2913 207.704 105.788 207.872 113.069 206.263" fill="white"/>
<g opacity="0.35">
<g opacity="0.35">
<g opacity="0.35">
<g opacity="0.35">
<path opacity="0.35" d="M113.143 223.322C105.374 226.458 93.3545 225.796 85.1608 224.815C80.2463 224.222 76.7969 219.702 77.5215 214.827C77.6655 213.832 77.9796 212.898 78.4252 212.046C79.719 214.507 82.1694 216.32 85.1608 216.682C93.3398 217.67 105.339 218.325 113.109 215.209L113.143 223.322Z" fill="#317F8B"/>
</g>
</g>
</g>
</g>
<path d="M97.6996 227.682C93.2059 227.682 88.7382 227.313 84.9124 226.852C81.9823 226.499 79.3822 225.017 77.5906 222.679C75.7956 220.337 75.0461 217.441 75.4792 214.525C75.8738 211.867 77.2368 209.463 79.3164 207.754C81.3983 206.043 84.029 205.17 86.7232 205.297C98.0137 205.823 107.211 205.455 112.621 204.26C113.707 204.02 116.406 204.011 117.999 209.113C119.617 214.296 119.438 223.002 113.915 225.229C109.36 227.064 103.509 227.682 97.6996 227.682ZM86.2084 209.392C82.8815 209.392 80.0535 211.805 79.5614 215.125C79.2926 216.934 79.7575 218.732 80.871 220.185C81.9812 221.634 83.5925 222.553 85.409 222.772C97.1259 224.183 106.701 223.703 112.367 221.419C114.05 220.74 114.533 218.024 114.663 216.887C115.117 212.912 113.902 209.239 113.141 208.35C105.757 209.897 94.6301 209.778 86.5316 209.4C86.4227 209.394 86.315 209.392 86.2084 209.392Z" fill="#317F8B"/>
<path d="M172.546 223.323C180.312 226.455 192.332 225.8 200.525 224.811C205.44 224.22 208.89 219.702 208.166 214.824C207.505 210.373 203.571 207.136 199.059 207.346C191.395 207.704 179.898 207.872 172.617 206.263" fill="white"/>
<g opacity="0.35">
<g opacity="0.35">
<g opacity="0.35">
<g opacity="0.35">
<path opacity="0.35" d="M200.523 224.815C192.329 225.796 180.311 226.458 172.541 223.322L172.575 215.134C180.344 218.25 192.343 217.595 200.523 216.606C203.501 216.252 205.937 214.451 207.238 212.004C207.696 212.864 208.018 213.811 208.169 214.826C208.888 219.702 205.438 224.222 200.523 224.815Z" fill="#317F8B"/>
</g>
</g>
</g>
</g>
<path d="M187.987 227.682C182.178 227.682 176.328 227.065 171.772 225.228C166.248 223.001 166.069 214.294 167.687 209.112C169.279 204.011 171.979 204.019 173.065 204.259C178.476 205.455 187.674 205.823 198.963 205.295C201.66 205.17 204.288 206.043 206.37 207.753C208.45 209.462 209.813 211.866 210.207 214.524C210.64 217.44 209.89 220.336 208.096 222.678C206.304 225.016 203.704 226.498 200.774 226.851C196.948 227.312 192.479 227.682 187.987 227.682ZM172.546 208.35C171.785 209.239 170.571 212.912 171.024 216.888C171.154 218.024 171.637 220.74 173.32 221.419C178.987 223.704 188.562 224.185 200.279 222.772C202.094 222.553 203.706 221.634 204.816 220.185C205.93 218.732 206.395 216.935 206.126 215.125C205.618 211.699 202.622 209.239 199.157 209.4C191.056 209.778 179.93 209.895 172.546 208.35Z" fill="#317F8B"/>
<path d="M175.547 200.626V227.965C175.547 233.037 171.379 237.188 166.287 237.188H115.737C110.652 237.188 106.483 233.037 106.483 227.965V200.626C106.483 195.554 110.652 191.409 115.737 191.409H166.287C169.285 191.409 171.961 192.848 173.658 195.063C174.842 196.61 175.547 198.54 175.547 200.626Z" fill="white"/>
<g opacity="0.35">
<g opacity="0.35">
<g opacity="0.35">
<g opacity="0.35">
<path opacity="0.35" d="M175.546 200.626V227.965C175.546 233.037 171.38 237.186 166.287 237.186H115.739C110.647 237.186 106.48 233.037 106.48 227.965V217.739C114.072 225.448 129.003 230.288 142.696 230.36C147.095 230.384 150.645 226.918 150.959 222.546C150.962 222.502 150.966 222.458 150.969 222.415C151.306 218.579 154.477 215.474 158.333 215.197C162.723 214.882 166.43 218.112 166.864 222.31C173.492 214.16 171.551 199.995 173.659 195.063C174.844 196.613 175.546 198.539 175.546 200.626Z" fill="#317F8B"/>
</g>
</g>
</g>
</g>
<path d="M166.288 239.242H115.738C109.497 239.242 104.419 234.184 104.419 227.968V200.626C104.419 194.41 109.497 189.353 115.738 189.353H166.288C172.529 189.353 177.607 194.41 177.607 200.626V227.968C177.607 234.184 172.529 239.242 166.288 239.242ZM115.738 193.462C111.771 193.462 108.544 196.676 108.544 200.626V227.968C108.544 231.919 111.771 235.133 115.738 235.133H166.288C170.255 235.133 173.482 231.919 173.482 227.968V200.626C173.482 196.676 170.255 193.462 166.288 193.462H115.738Z" fill="#317F8B"/>
<path d="M158.921 222.248C163.33 222.248 166.904 218.688 166.904 214.297C166.904 209.905 163.33 206.346 158.921 206.346C154.513 206.346 150.938 209.905 150.938 214.297C150.938 218.688 154.513 222.248 158.921 222.248Z" fill="#22A7F0"/>
<g opacity="0.7">
<g opacity="0.7">
<g opacity="0.7">
<g opacity="0.7">
<path opacity="0.7" d="M166.904 214.297C166.904 214.841 166.852 215.37 166.749 215.886C166.011 212.25 162.787 209.515 158.923 209.515C155.054 209.515 151.829 212.25 151.092 215.886C150.989 215.37 150.937 214.842 150.937 214.297C150.937 209.903 154.512 206.348 158.923 206.348C163.327 206.348 166.904 209.903 166.904 214.297Z" fill="white"/>
</g>
</g>
</g>
</g>
<g opacity="0.35">
<g opacity="0.35">
<g opacity="0.35">
<g opacity="0.35">
<path opacity="0.35" d="M166.902 214.296C166.902 218.686 163.329 222.244 158.922 222.244C154.514 222.244 150.941 218.686 150.941 214.296C150.941 213.28 151.133 212.311 151.489 211.419C152.638 214.385 155.534 216.484 158.923 216.484C162.311 216.484 165.206 214.385 166.357 211.419C166.71 212.311 166.902 213.279 166.902 214.296Z" fill="#317F8B"/>
</g>
</g>
</g>
</g>
<path d="M158.922 223.788C153.667 223.788 149.392 219.53 149.392 214.297C149.392 209.063 153.667 204.805 158.922 204.805C164.176 204.805 168.451 209.063 168.451 214.297C168.451 219.53 164.176 223.788 158.922 223.788ZM158.922 207.887C155.374 207.887 152.487 210.763 152.487 214.297C152.487 217.831 155.374 220.706 158.922 220.706C162.47 220.706 165.357 217.831 165.357 214.297C165.357 210.763 162.47 207.887 158.922 207.887Z" fill="#317F8B"/>
<path d="M136.301 238.728C135.446 238.728 134.754 238.038 134.754 237.187V218.462L124.646 210.881V191.407C124.646 190.556 125.338 189.867 126.192 189.867C127.046 189.867 127.739 190.557 127.739 191.407V209.343L137.848 216.924V237.187C137.848 238.038 137.155 238.728 136.301 238.728Z" fill="#317F8B"/>
<path d="M142.005 251.907C150.947 251.907 159.545 248.602 166.262 242.721C175.564 234.576 191.225 224.862 208.511 231.093C215.447 233.591 220.173 238.176 223.398 243.248C231.703 224.082 249.125 222.933 256.665 233.796C256.665 233.796 243.99 294.024 239.859 295.365C233.941 297.285 219.722 295.266 219.722 295.266C219.722 295.266 170.253 288.595 142.005 288.595C113.756 288.595 64.2876 295.266 64.2876 295.266C64.2876 295.266 50.0682 297.284 44.1502 295.365C40.0193 294.024 27.3442 233.796 27.3442 233.796C34.8837 222.932 52.3065 224.082 60.6114 243.248C63.8352 238.174 68.5625 233.591 75.4987 231.093C92.7843 224.862 108.445 234.576 117.748 242.721C124.464 248.601 133.063 251.907 142.005 251.907Z" fill="white"/>
<g opacity="0.35">
<path d="M256.667 233.794C256.667 233.794 243.991 294.024 239.86 295.365C233.944 297.286 219.721 295.268 219.721 295.268C219.721 295.268 170.255 288.595 142.004 288.595C113.759 288.595 64.2871 295.268 64.2871 295.268C64.2871 295.268 50.0688 297.286 44.1542 295.365C40.0233 294.024 27.3472 233.794 27.3472 233.794C28.59 232.006 30.0958 230.542 31.7876 229.433C35.8516 247.092 41.6165 270.15 44.1542 270.972C50.0699 272.888 64.2871 270.869 64.2871 270.869C64.2871 270.869 113.759 257.525 142.004 257.525C170.255 257.525 219.721 270.869 219.721 270.869C219.721 270.869 233.944 272.888 239.86 270.972C242.398 270.15 248.162 247.092 252.226 229.433C253.918 230.543 255.424 232.007 256.667 233.794Z" fill="#317F8B"/>
</g>
<path d="M51.7769 298.242C48.6744 298.242 45.6435 298.01 43.5117 297.319C42.058 296.847 40.8356 295.242 38.5417 288.124C37.1991 283.958 35.5878 278.156 33.7542 270.881C30.4522 257.782 27.2342 243.091 26.0038 237.383C25.3598 234.394 26.3429 231.303 28.5711 229.318C32.8482 225.504 38.5814 224.036 44.2986 225.289C47.9022 226.08 51.4083 227.953 54.4382 230.708C56.9476 232.991 59.1292 235.841 60.9481 239.212C64.639 234.521 69.2858 231.147 74.799 229.161C81.0458 226.909 87.5817 226.462 94.2266 227.831C99.5912 228.938 105.046 231.232 110.439 234.652C111.401 235.262 111.683 236.531 111.072 237.489C110.461 238.447 109.185 238.728 108.224 238.119C97.1237 231.081 86.3503 229.367 76.2028 233.026C70.4799 235.088 65.8205 238.896 62.3564 244.348C61.9471 244.992 61.2123 245.356 60.4514 245.298C59.6894 245.238 59.0227 244.763 58.7188 244.063C55.2489 236.055 49.67 230.675 43.4119 229.304C39.0054 228.339 34.599 229.46 31.3231 232.382C30.196 233.386 29.7038 234.973 30.0384 236.523C31.1995 241.911 34.243 255.811 37.4134 268.511C39.1563 275.492 40.7007 281.172 42.0047 285.39C43.8303 291.298 44.7839 293.031 45.123 293.514C49.7834 294.815 60.2654 293.765 63.9983 293.235C64.0029 293.234 64.0074 293.234 64.0119 293.233C64.5075 293.166 113.943 286.543 142.006 286.543C170.069 286.543 219.504 293.166 219.999 293.233C220.004 293.234 220.01 293.234 220.014 293.235C223.748 293.765 234.229 294.815 238.89 293.514C239.223 293.04 240.15 291.357 241.915 285.691C243.188 281.604 244.695 276.097 246.396 269.323C249.428 257.244 252.335 244.102 253.797 237.343C254.277 235.129 253.444 232.858 251.675 231.56C248.299 229.081 244.115 228.341 239.895 229.477C233.849 231.104 228.664 236.285 225.294 244.064C224.991 244.763 224.324 245.239 223.561 245.299C222.798 245.359 222.065 244.993 221.656 244.349C218.192 238.898 213.534 235.089 207.811 233.027C197.574 229.337 186.709 231.11 175.513 238.296C174.555 238.911 173.279 238.636 172.661 237.682C172.045 236.729 172.32 235.457 173.278 234.842C178.704 231.359 184.195 229.014 189.597 227.872C196.307 226.454 202.908 226.888 209.215 229.162C214.728 231.149 219.375 234.523 223.067 239.215C226.941 232.041 232.445 227.225 238.819 225.509C244.2 224.06 249.778 225.06 254.124 228.252C257.197 230.508 258.652 234.416 257.832 238.208C256.283 245.369 253.212 259.241 250.053 271.695C248.263 278.757 246.689 284.384 245.377 288.417C243.138 295.298 241.936 296.856 240.5 297.321C234.227 299.356 220.158 297.406 219.442 297.304C218.666 297.2 169.71 290.653 142.007 290.653C114.299 290.653 65.3477 297.2 64.5721 297.304C64.0959 297.369 57.8037 298.242 51.7769 298.242Z" fill="#317F8B"/>
<path d="M236.186 295.365H239.86C244.173 295.365 248.084 292.845 249.841 288.922C255.34 276.656 265.368 249.702 255.975 233.255C255.702 232.775 255.41 232.313 255.1 231.87C255.1 231.87 246.083 223.701 239.605 235.257C233.554 246.053 220.853 292.213 236.186 295.365Z" fill="#AFAFB2"/>
<g opacity="0.7">
<g opacity="0.7">
<g opacity="0.7">
<g opacity="0.7">
<path opacity="0.7" d="M236.287 242.952C236.449 242.693 236.611 242.449 236.769 242.222C244.734 230.666 255.822 238.835 255.822 238.835C256.202 239.278 256.564 239.74 256.897 240.22C258.01 241.803 258.899 243.483 259.594 245.241C259.145 240.921 258.023 236.837 255.975 233.256C255.702 232.776 255.41 232.314 255.1 231.871C255.1 231.871 246.083 223.702 239.605 235.258C238.622 237.008 237.469 239.68 236.287 242.952Z" fill="white"/>
</g>
</g>
</g>
</g>
<path d="M259.545 246.473C259.452 246.473 259.358 246.466 259.263 246.45L236.725 242.702C235.799 242.549 235.173 241.676 235.327 240.752C235.481 239.829 236.359 239.206 237.284 239.359L259.822 243.107C260.749 243.26 261.374 244.133 261.22 245.057C261.082 245.887 260.362 246.473 259.545 246.473Z" fill="#317F8B"/>
<path d="M259.402 258.602C259.326 258.602 259.25 258.597 259.173 258.586L232.808 255.055C231.877 254.931 231.224 254.079 231.348 253.151C231.473 252.224 232.329 251.574 233.261 251.698L259.626 255.228C260.557 255.353 261.21 256.205 261.086 257.132C260.971 257.984 260.241 258.602 259.402 258.602Z" fill="#317F8B"/>
<path d="M257.076 270.481C257.007 270.481 256.938 270.477 256.868 270.469L230.104 267.206C229.171 267.092 228.508 266.247 228.622 265.319C228.736 264.39 229.583 263.728 230.516 263.842L257.28 267.105C258.213 267.219 258.876 268.064 258.762 268.992C258.657 269.852 257.923 270.481 257.076 270.481Z" fill="#317F8B"/>
<path d="M252.832 283.436C252.781 283.436 252.729 283.434 252.677 283.429L228.749 281.279C227.813 281.195 227.124 280.371 227.208 279.439C227.292 278.507 228.119 277.82 229.055 277.904L252.983 280.055C253.918 280.138 254.609 280.963 254.524 281.895C254.444 282.774 253.702 283.436 252.832 283.436Z" fill="#317F8B"/>
<g opacity="0.35">
<g opacity="0.35">
<g opacity="0.35">
<g opacity="0.35">
<path opacity="0.35" d="M236.185 295.365H239.859C244.172 295.365 248.083 292.845 249.84 288.922C251.261 285.742 252.991 281.584 254.608 276.872C252.402 280.518 247.921 282.83 243.001 282.83H238.622C232.39 281.755 230.045 275.667 229.952 267.688C227.845 281.156 228.423 293.769 236.185 295.365Z" fill="#317F8B"/>
</g>
</g>
</g>
</g>
<path d="M239.86 297.059H236.186C236.071 297.059 235.956 297.048 235.843 297.024C232.873 296.413 230.629 294.495 229.172 291.323C225.737 283.844 227.406 270.814 229.412 261.201C231.864 249.453 235.649 238.841 238.121 234.432C240.393 230.377 243.256 228.043 246.629 227.495C251.802 226.655 256.066 230.455 256.245 230.617C256.34 230.701 256.423 230.797 256.496 230.9C256.835 231.383 257.158 231.895 257.456 232.418C261.749 239.935 262.66 250.218 260.164 262.98C258.135 273.354 254.276 283.189 251.396 289.612C249.369 294.136 244.843 297.059 239.86 297.059ZM236.371 293.671H239.86C243.5 293.671 246.809 291.536 248.288 288.233C251.095 281.97 254.855 272.393 256.824 262.334C259.161 250.39 258.377 240.888 254.498 234.093C254.287 233.722 254.061 233.361 253.827 233.015C253.189 232.497 250.295 230.322 247.157 230.842C244.869 231.223 242.828 232.986 241.092 236.084C238.803 240.166 235.1 250.598 232.744 261.891C230.055 274.778 229.885 284.731 232.266 289.915C233.232 292.019 234.576 293.25 236.371 293.671Z" fill="#317F8B"/>
<path d="M47.8265 295.365H44.1526C39.8391 295.365 35.9282 292.845 34.1718 288.922C28.6722 276.656 18.6449 249.702 28.0372 233.255C28.3105 232.775 28.603 232.313 28.9126 231.87C28.9126 231.87 37.9296 223.701 44.4077 235.257C50.4583 246.053 63.1583 292.213 47.8265 295.365Z" fill="#AFAFB2"/>
<g opacity="0.7">
<g opacity="0.7">
<g opacity="0.7">
<g opacity="0.7">
<path opacity="0.7" d="M47.7232 242.952C47.5611 242.693 47.3989 242.449 47.2413 242.222C39.2766 230.666 28.1879 238.835 28.1879 238.835C27.8081 239.278 27.4464 239.74 27.113 240.22C26.0006 241.803 25.1116 243.483 24.4165 245.241C24.8655 240.921 25.987 236.837 28.0349 233.256C28.3081 232.776 28.6007 232.314 28.9103 231.871C28.9103 231.871 37.9272 223.702 44.4054 235.258C45.3873 237.008 46.5417 239.68 47.7232 242.952Z" fill="white"/>
</g>
</g>
</g>
</g>
<path d="M24.4659 246.473C23.6495 246.473 22.9295 245.886 22.79 245.058C22.6358 244.135 23.2606 243.262 24.1881 243.108L46.726 239.36C47.6525 239.207 48.529 239.829 48.6832 240.753C48.8374 241.676 48.2126 242.549 47.2851 242.703L24.7471 246.451C24.653 246.467 24.5589 246.473 24.4659 246.473Z" fill="#317F8B"/>
<path d="M24.6083 258.602C23.7692 258.602 23.039 257.984 22.9244 257.134C22.7997 256.206 23.4529 255.354 24.3838 255.229L50.7499 251.698C51.682 251.572 52.537 252.224 52.6628 253.151C52.7876 254.079 52.1344 254.931 51.2035 255.056L24.8374 258.587C24.7603 258.597 24.6843 258.602 24.6083 258.602Z" fill="#317F8B"/>
<path d="M26.9353 270.481C26.0883 270.481 25.3546 269.852 25.2492 268.992C25.1347 268.064 25.798 267.219 26.7312 267.105L53.4953 263.842C54.4274 263.729 55.2756 264.389 55.3901 265.318C55.5047 266.247 54.8413 267.092 53.9081 267.206L27.144 270.469C27.0737 270.478 27.0034 270.481 26.9353 270.481Z" fill="#317F8B"/>
<path d="M31.1802 283.436C30.3093 283.436 29.5677 282.774 29.4884 281.894C29.4044 280.963 30.0939 280.139 31.0294 280.055L54.9575 277.904C55.8941 277.821 56.7196 278.507 56.8047 279.439C56.8886 280.371 56.1991 281.194 55.2637 281.279L31.3355 283.429C31.2834 283.434 31.2312 283.436 31.1802 283.436Z" fill="#317F8B"/>
<g opacity="0.35">
<g opacity="0.35">
<g opacity="0.35">
<g opacity="0.35">
<path opacity="0.35" d="M47.8253 295.365H44.1513C39.8379 295.365 35.927 292.845 34.1705 288.922C32.7486 285.742 31.0193 281.584 29.4023 276.872C31.6078 280.518 36.0891 282.83 41.0092 282.83H45.3885C51.6205 281.755 53.9655 275.667 54.0585 267.688C56.1653 281.156 55.5859 293.769 47.8253 295.365Z" fill="#317F8B"/>
</g>
</g>
</g>
</g>
<path d="M47.8256 297.059H44.1517C39.1703 297.059 34.6426 294.136 32.6174 289.612C29.7383 283.19 25.8784 273.355 23.8487 262.981C21.3529 250.22 22.2635 239.936 26.5565 232.418C26.8548 231.895 27.1779 231.385 27.5158 230.901C27.5884 230.797 27.6723 230.702 27.7664 230.618C27.9456 230.455 32.2103 226.656 37.3833 227.496C40.7556 228.044 43.6187 230.378 45.8911 234.433C48.3631 238.842 52.1481 249.454 54.5997 261.202C56.6056 270.815 58.2747 283.845 54.8401 291.324C53.383 294.497 51.1389 296.414 48.1692 297.025C48.0558 297.048 47.9401 297.059 47.8256 297.059ZM30.184 233.017C29.9492 233.361 29.7247 233.722 29.5138 234.092C25.6335 240.888 24.85 250.389 27.187 262.333C29.1555 272.394 32.9145 281.97 35.7232 288.233C37.203 291.537 40.5106 293.672 44.1505 293.672H47.6396C49.4346 293.251 50.7795 292.02 51.7456 289.915C54.1257 284.731 53.9567 274.778 51.2682 261.891C48.9119 250.598 45.2085 240.166 42.9202 236.084C41.1842 232.986 39.1431 231.223 36.8549 230.842C33.723 230.323 30.8292 232.491 30.184 233.017Z" fill="#317F8B"/>
<path d="M89.297 293.819C89.0554 293.819 88.8105 293.762 88.5814 293.643C87.824 293.249 87.5314 292.317 87.9283 291.562C94.3883 279.269 94.4835 265.443 88.2118 250.47C83.481 239.178 76.7069 231.45 76.6389 231.373C76.0742 230.735 76.1354 229.762 76.7761 229.198C77.4168 228.636 78.3942 228.696 78.9589 229.334C79.2481 229.66 86.0959 237.457 91.0307 249.196C93.9427 256.123 95.5664 262.977 95.859 269.57C96.2264 277.858 94.4801 285.738 90.669 292.991C90.3923 293.519 89.8537 293.819 89.297 293.819Z" fill="#317F8B"/>
<path d="M195.341 293.819C194.784 293.819 194.246 293.518 193.969 292.992C190.158 285.739 188.412 277.859 188.779 269.571C189.072 262.978 190.696 256.124 193.608 249.197C198.542 237.458 205.39 229.66 205.679 229.335C206.245 228.697 207.223 228.636 207.863 229.199C208.504 229.762 208.565 230.735 207.999 231.373C207.931 231.45 201.157 239.177 196.427 250.47C190.155 265.444 190.25 279.269 196.71 291.562C197.106 292.317 196.813 293.247 196.057 293.643C195.828 293.762 195.583 293.819 195.341 293.819Z" fill="#317F8B"/>
<g opacity="0.35">
<path d="M193.271 145.779C191.486 147.813 189.609 149.745 187.654 151.559C183.013 155.863 177.928 159.525 172.487 162.428C163.297 167.338 153.101 170.092 142.364 170.143C131.874 170.189 121.89 167.651 112.84 163.039C106.914 160.013 101.391 156.104 96.3937 151.446C93.9081 149.124 91.5507 146.622 89.3384 143.957C93.3457 142.724 97.3269 141.296 100.972 139.883C105.5 129.019 110.781 117.893 116.939 106.768H167.071C172.162 115.967 176.653 125.161 180.614 134.217C184.39 136.41 188.737 140.54 193.271 145.779Z" fill="#317F8B"/>
</g>
<path d="M218.56 96.1751C217.687 96.2688 216.904 95.6398 216.809 94.7701L211.917 49.4202C211.822 48.5506 212.454 47.7702 213.327 47.6765C222.486 46.6961 230.708 53.2963 231.692 62.4185L233.363 77.8833C234.347 87.0055 227.719 95.1948 218.56 96.1751Z" fill="white"/>
<path d="M218.387 96.575C217.937 96.575 217.502 96.4236 217.148 96.1379C216.735 95.807 216.477 95.336 216.421 94.812L211.528 49.4621C211.471 48.938 211.623 48.423 211.955 48.0131C212.287 47.6031 212.76 47.3456 213.286 47.2891C222.647 46.2873 231.078 53.0558 232.084 62.3779L233.752 77.8428C234.239 82.3581 232.932 86.7921 230.07 90.3283C227.209 93.8644 223.136 96.0792 218.602 96.5648L218.56 96.1763L218.602 96.5648C218.531 96.5716 218.458 96.575 218.387 96.575ZM215.122 47.9701C214.543 47.9701 213.959 48.0006 213.37 48.0639C213.052 48.0978 212.766 48.2536 212.565 48.501C212.365 48.7494 212.273 49.06 212.307 49.3774L217.2 94.7273C217.234 95.0446 217.39 95.3292 217.64 95.5291C217.889 95.729 218.201 95.8205 218.52 95.7867C222.845 95.3236 226.73 93.2105 229.461 89.837C232.191 86.4635 233.439 82.2327 232.974 77.9241L231.306 62.4592C230.408 54.1525 223.33 47.9701 215.122 47.9701Z" fill="#317F8B"/>
<g opacity="0.35">
<g opacity="0.35">
<g opacity="0.35">
<g opacity="0.35">
<path opacity="0.35" d="M232.58 70.6315L233.364 77.8845C234.347 87.0032 227.721 95.1948 218.561 96.1785C217.688 96.2733 216.904 95.6386 216.81 94.7701L215.505 82.7149C215.809 83.2378 216.403 83.5586 217.044 83.4953L218.123 83.3767C225.36 82.6031 231.02 77.3232 232.58 70.6315Z" fill="#317F8B"/>
</g>
</g>
</g>
</g>
<path d="M218.385 98.3583C217.527 98.3583 216.702 98.0691 216.025 97.5259C215.24 96.8968 214.749 96.0001 214.642 95.0028L209.749 49.6529C209.641 48.6557 209.93 47.6754 210.562 46.8938C211.193 46.1123 212.094 45.6233 213.095 45.516C223.434 44.4091 232.752 51.888 233.863 62.187L235.531 77.6519C236.069 82.6404 234.625 87.5398 231.463 91.4475C228.302 95.3541 223.803 97.8015 218.793 98.3368C218.658 98.3504 218.521 98.3583 218.385 98.3583ZM218.33 94.0146H218.329C218.329 94.0146 218.329 94.0146 218.33 94.0146ZM214.153 49.7862L218.916 93.9412C222.53 93.4081 225.762 91.5695 228.068 88.72C230.498 85.7169 231.609 81.9515 231.195 78.1161L229.527 62.6512C228.693 54.9306 221.862 49.2712 214.153 49.7862Z" fill="#317F8B"/>
<path d="M63.0379 63.7624C63.9111 63.6687 64.6946 64.2978 64.7887 65.1674L69.6816 110.517C69.7757 111.387 69.1441 112.167 68.271 112.261C59.1123 113.241 50.8902 106.641 49.9059 97.5191L48.2379 82.0542C47.2514 72.932 53.8792 64.7427 63.0379 63.7624Z" fill="white"/>
<path d="M66.4749 112.748C57.8729 112.749 50.4537 106.269 49.5148 97.5609L47.8468 82.096C46.841 72.774 53.6366 64.3757 62.996 63.374L63.038 63.7625L62.996 63.374C64.0812 63.2576 65.0609 64.0437 65.1777 65.1257L70.0706 110.476C70.1874 111.558 69.3982 112.532 68.3119 112.649C67.6962 112.715 67.0816 112.748 66.4749 112.748ZM63.2081 64.1431C63.165 64.1431 63.123 64.1453 63.0788 64.1499C54.1491 65.1053 47.6653 73.1184 48.6258 82.0124L50.2938 97.4773C51.2531 106.371 59.2972 112.829 68.228 111.874C68.8845 111.804 69.3619 111.214 69.2916 110.56L64.3987 65.2104C64.3329 64.5982 63.8113 64.1431 63.2081 64.1431Z" fill="#317F8B"/>
<g opacity="0.35">
<g opacity="0.35">
<g opacity="0.35">
<g opacity="0.35">
<path opacity="0.35" d="M68.3283 97.9359L69.6845 110.517C69.7797 111.387 69.1424 112.167 68.2704 112.261C63.4626 112.774 58.9087 111.201 55.5274 108.267C52.4737 105.617 50.3759 101.852 49.9076 97.5214L49.2046 91.0048C52.4215 96.444 58.6434 99.8062 65.3585 99.089L67.0197 98.9106C67.6252 98.8451 68.1049 98.4554 68.3283 97.9359Z" fill="#317F8B"/>
</g>
</g>
</g>
</g>
<path d="M66.4737 114.53C56.9691 114.531 48.7731 107.372 47.7355 97.7506L46.0675 82.2858C44.9563 71.9868 52.4652 62.7076 62.8055 61.6008C64.8715 61.3795 66.7357 62.8748 66.9579 64.9337L71.8508 110.285C72.0731 112.345 70.5717 114.199 68.5034 114.421C67.822 114.495 67.1439 114.53 66.4737 114.53ZM62.683 65.9976C55.0403 67.127 49.5725 74.1021 50.4048 81.8227L52.0728 97.2876C52.9063 105.008 59.737 110.666 67.4466 110.153L62.683 65.9976Z" fill="#317F8B"/>
<path d="M140.807 157.693C183.906 157.693 218.844 122.895 218.844 79.9681C218.844 37.0417 183.906 2.24292 140.807 2.24292C97.7088 2.24292 62.7705 37.0417 62.7705 79.9681C62.7705 122.895 97.7088 157.693 140.807 157.693Z" fill="white"/>
<path d="M140.732 158.085C131.164 158.085 121.817 156.377 112.905 152.994C103.429 149.398 94.844 144.069 87.3861 137.16C79.9283 130.249 73.9752 122.104 69.6901 112.95C65.2542 103.472 62.8117 93.3233 62.4295 82.7849C62.0474 72.2465 63.7494 61.9486 67.488 52.1771C71.0984 42.7387 76.4483 34.188 83.3856 26.7599C90.323 19.3319 98.5032 13.4014 107.695 9.1334C117.211 4.71519 127.4 2.28247 137.981 1.90186C148.562 1.52126 158.901 3.21648 168.711 6.94011C178.188 10.5361 186.773 15.8646 194.23 22.7743C201.688 29.6851 207.641 37.8303 211.926 46.9841C216.362 56.462 218.805 66.6108 219.187 77.1492C219.569 87.6876 217.867 97.9855 214.129 107.757C210.518 117.195 205.168 125.746 198.23 133.174C191.291 140.602 183.113 146.532 173.923 150.8C164.407 155.218 154.218 157.65 143.637 158.031C142.665 158.067 141.697 158.085 140.732 158.085ZM140.844 2.63145C139.901 2.63145 138.959 2.6484 138.008 2.68228C95.2227 4.22052 61.6698 40.141 63.2131 82.7555C63.9603 103.399 72.7347 122.517 87.9191 136.587C102.4 150.007 121.062 157.303 140.737 157.304C141.692 157.304 142.647 157.287 143.606 157.252C164.332 156.508 183.527 147.768 197.654 132.644C211.78 117.521 219.148 97.8228 218.401 77.1797C216.893 35.5116 182.374 2.63145 140.844 2.63145Z" fill="#317F8B"/>
<g opacity="0.35">
<g opacity="0.35">
<g opacity="0.35">
<g opacity="0.35">
<path opacity="0.35" d="M217.658 66.4403C218.281 69.9347 218.664 73.5149 218.796 77.1662C220.344 120.064 186.69 156.094 143.62 157.645C100.55 159.187 64.3758 125.667 62.8189 82.7703C62.7736 81.537 62.7577 80.3014 62.7724 79.0828C69.3991 116.705 103.028 144.647 142.435 143.232C184.267 141.726 217.211 107.698 217.658 66.4403Z" fill="#317F8B"/>
</g>
</g>
</g>
</g>
<path d="M140.732 159.867C130.945 159.867 121.385 158.119 112.269 154.66C102.577 150.981 93.7949 145.532 86.1681 138.464C78.5413 131.396 72.4522 123.065 68.0695 113.702C63.5315 104.007 61.0335 93.626 60.6434 82.8482C60.2534 72.0703 61.9939 61.5364 65.8187 51.5412C69.5119 41.8883 74.9831 33.1411 82.0792 25.5447C89.1753 17.9484 97.538 11.8824 106.939 7.51842C116.673 2.99856 127.096 0.510498 137.917 0.121985C148.739 -0.266528 159.314 1.4671 169.35 5.27656C179.041 8.95501 187.824 14.4044 195.45 21.4721C203.077 28.5399 209.166 36.8715 213.549 46.2342C218.087 55.9289 220.585 66.3104 220.975 77.0882C221.365 87.8661 219.625 98.4 215.8 108.395C212.107 118.048 206.635 126.795 199.539 134.392C192.443 141.988 184.078 148.053 174.678 152.418C164.944 156.938 154.521 159.426 143.7 159.814C142.709 159.849 141.718 159.867 140.732 159.867ZM140.845 4.41483C139.923 4.41483 139.003 4.43177 138.075 4.46452C96.2748 5.96662 63.4953 41.0593 65.0034 82.6923C65.7336 102.86 74.3061 121.537 89.1402 135.284C103.288 148.394 121.518 155.523 140.742 155.523C141.674 155.523 142.608 155.506 143.545 155.472C163.793 154.745 182.545 146.206 196.347 131.431C210.149 116.657 217.348 97.4129 216.616 77.2452C215.141 36.536 181.417 4.41483 140.845 4.41483Z" fill="#317F8B"/>
<path d="M218.618 79.1697C219.4 94.359 215.174 108.715 207.308 120.814C201.41 129.885 176.104 146.526 143.898 148.457C114.036 150.248 86.0386 135.769 79.2418 127.346C70.175 116.11 64.4997 102.26 63.7184 87.0709C61.6512 46.8745 95.4683 28.4416 138.246 26.2596C181.021 24.0776 216.551 38.9733 218.618 79.1697Z" fill="#17A2B8"/>
<path d="M138.715 150.105C123.866 150.105 110.952 146.419 102.379 143.125C91.5243 138.956 81.9823 133.129 78.0714 128.282C68.4727 116.387 62.9913 102.162 62.2191 87.1467C61.7066 77.1831 63.3564 68.1423 67.12 60.2749C70.6635 52.8705 76.0984 46.4556 83.2762 41.2061C96.3889 31.6153 115.37 25.931 138.166 24.7688C160.964 23.6067 180.428 27.3292 194.455 35.5354C202.133 40.027 208.199 45.8558 212.483 52.8615C217.034 60.3042 219.603 69.1305 220.114 79.094C220.886 94.1094 216.891 108.816 208.564 121.626C205.104 126.948 196.51 133.471 186.138 138.648C177.027 143.196 162.318 148.849 143.987 149.948C142.206 150.054 140.447 150.105 138.715 150.105ZM146.216 27.546C143.634 27.546 141.003 27.6138 138.32 27.7505C116.11 28.8832 97.6906 34.3687 85.0507 43.6129C70.939 53.9344 64.2647 68.5308 65.2138 86.9942C65.9531 101.378 71.2078 115.009 80.4084 126.411C83.1458 129.804 90.8247 135.487 103.459 140.34C112.754 143.91 127.297 147.958 143.807 146.968C161.632 145.898 175.936 140.401 184.797 135.978C196.67 130.051 203.666 123.668 206.05 120.003C214.033 107.724 217.862 93.6305 217.123 79.2465C216.174 60.7831 208.037 46.9423 192.939 38.1104C181.05 31.1556 165.011 27.546 146.216 27.546Z" fill="#317F8B"/>
<g opacity="0.5">
<g opacity="0.5">
<g opacity="0.5">
<g opacity="0.5">
<path d="M203.082 76.2644C204.056 68.73 200.402 62.0523 194.921 61.3494C189.44 60.6465 184.207 66.1844 183.233 73.7188C182.259 81.2532 185.913 87.9308 191.394 88.6337C196.875 89.3367 202.108 83.7987 203.082 76.2644Z" fill="white"/>
</g>
</g>
</g>
</g>
<g opacity="0.5">
<g opacity="0.5">
<g opacity="0.5">
<g opacity="0.5">
<path d="M187.571 104.269C188.494 100.906 186.893 97.5402 183.995 96.7515C181.097 95.9628 178 98.0499 177.077 101.413C176.154 104.777 177.755 108.142 180.653 108.931C183.551 109.72 186.648 107.633 187.571 104.269Z" fill="white"/>
</g>
</g>
</g>
</g>
<g opacity="0.35">
<path d="M201.627 42.4384C211.558 50.954 217.785 63.0239 218.618 79.1675C219.399 94.3602 215.17 108.715 207.31 120.814C201.41 129.885 176.102 146.525 143.896 148.461C132.525 149.146 121.427 147.468 111.662 144.659C151.199 141.44 182.018 121.029 189.332 109.778C199.317 94.4212 204.679 76.1995 203.685 56.9252C203.424 51.7728 202.718 46.9492 201.627 42.4384Z" fill="#317F8B"/>
</g>
<path d="M67.788 54.5872C67.3481 54.5872 66.9059 54.4505 66.5271 54.1671C65.6359 53.4985 65.4306 52.2595 66.0373 51.3458C69.2758 46.0467 73.4112 41.2038 78.3279 36.9528C83.1153 32.8147 88.6829 29.2017 94.8753 26.2144C100.938 23.2904 107.64 20.9481 114.793 19.2517C121.881 17.5712 129.448 16.5163 137.285 16.1165C144.994 15.7235 152.547 15.9889 159.735 16.9037C166.989 17.8275 173.885 19.4166 180.232 21.6246C186.726 23.8845 192.667 26.8029 197.893 30.2984C203.264 33.8921 207.91 38.1183 211.704 42.8606C212.366 43.5914 212.434 44.7106 211.814 45.5238C211.113 46.4431 209.797 46.6215 208.874 45.9236L208.654 45.7609L208.488 45.5509C194.44 27.9142 168.565 18.7073 137.5 20.2919C106.262 21.8855 81.5108 34.0152 69.591 53.5707L69.5366 53.66L69.4651 53.7537C69.0546 54.2992 68.4253 54.5872 67.788 54.5872Z" fill="#317F8B"/>
<g opacity="0.5">
<g opacity="0.5">
<g opacity="0.5">
<g opacity="0.5">
<path d="M82.3409 110.096C82.3409 110.096 67.8028 71.08 88.4471 54.1831C109.091 37.2861 139.965 35.7761 139.345 37.7842C139.345 37.7842 105.593 47.7681 93.6042 75.3593C84.3593 96.6361 82.3409 110.096 82.3409 110.096Z" fill="white"/>
</g>
</g>
</g>
</g>
<path d="M211.531 299.837H73.1285C68.6473 299.837 65.0142 296.218 65.0142 291.755C65.0142 289.183 67.1074 287.099 69.6893 287.099H214.97C217.552 287.099 219.646 289.183 219.646 291.755C219.646 296.22 216.012 299.837 211.531 299.837Z" fill="#E6E9FA"/>
<g opacity="0.3">
<g opacity="0.3">
<g opacity="0.3">
<g opacity="0.3">
<path opacity="0.3" d="M219.643 291.756C219.643 292.639 219.499 293.488 219.236 294.284C218.509 292.655 216.874 291.526 214.972 291.526H69.6905C68.4012 291.526 67.231 292.044 66.3851 292.892C65.9825 293.293 65.6526 293.761 65.4212 294.285C65.1582 293.489 65.0142 292.642 65.0142 291.757C65.0142 290.473 65.5346 289.308 66.3862 288.465C67.2321 287.618 68.4023 287.099 69.6916 287.099H214.972C217.555 287.098 219.643 289.182 219.643 291.756Z" fill="white"/>
</g>
</g>
</g>
</g>
<g opacity="0.35">
<g opacity="0.35">
<g opacity="0.35">
<g opacity="0.35">
<path opacity="0.35" d="M219.643 291.756C219.643 293.986 218.736 296.01 217.265 297.468C215.8 298.931 213.768 299.836 211.531 299.836H73.1305C68.6492 299.836 65.0127 296.22 65.0127 291.756C65.0127 290.898 65.2451 290.092 65.6568 289.398C66.8837 292.291 69.7718 294.325 73.1293 294.325H211.53C213.768 294.325 215.8 293.421 217.264 291.956C217.996 291.227 218.59 290.359 218.997 289.398C219.412 290.092 219.643 290.898 219.643 291.756Z" fill="#317F8B"/>
</g>
</g>
</g>
</g>
<path d="M211.532 301.893H73.1291C67.5173 301.893 62.9521 297.346 62.9521 291.756C62.9521 288.057 65.9752 285.046 69.6899 285.046H214.971C218.686 285.046 221.709 288.057 221.709 291.756C221.709 297.345 217.144 301.893 211.532 301.893ZM69.6888 289.154C68.2487 289.154 67.0762 290.321 67.0762 291.756C67.0762 295.08 69.7909 297.784 73.128 297.784H211.532C214.869 297.784 217.583 295.08 217.583 291.756C217.583 290.322 216.412 289.154 214.971 289.154H69.6888Z" fill="#317F8B"/>
<path d="M227.724 196.109L214.188 287.096H70.4749L69.9851 283.804L56.9313 196.109C56.5038 193.228 58.7467 190.644 61.6654 190.644H222.989C225.915 190.644 228.152 193.228 227.724 196.109Z" fill="#FF66AC"/>
<path d="M227.724 196.109L214.188 287.096H70.4749L69.9851 283.804L56.9313 196.109C56.5038 193.228 58.7467 190.644 61.6654 190.644H222.989C225.915 190.644 228.152 193.228 227.724 196.109Z" fill="#E6E9FA"/>
<g opacity="0.5">
<g opacity="0.5">
<g opacity="0.5">
<g opacity="0.5">
<path opacity="0.5" d="M62.0343 201.757C61.6068 198.876 63.8497 196.292 66.7685 196.292H227.698L227.725 196.11C228.152 193.229 225.915 190.645 222.991 190.645H61.6669C58.7482 190.645 56.5053 193.229 56.9328 196.11L69.9854 283.806L70.4753 287.098H74.7377L62.0343 201.757Z" fill="white"/>
</g>
</g>
</g>
</g>
<g opacity="0.35">
<g opacity="0.35">
<g opacity="0.35">
<g opacity="0.35">
<path opacity="0.35" d="M218.454 190.644H207.126C211.422 206.317 209.052 241.71 181.341 260.208C146.554 283.428 83.8618 283.28 70.5518 283.804L71.0416 287.096H209.652L223.189 196.109C223.616 193.228 221.379 190.644 218.454 190.644Z" fill="#317F8B"/>
</g>
</g>
</g>
</g>
<path d="M215.965 289.154H68.6952L54.8942 196.409C54.6016 194.445 55.181 192.457 56.4828 190.954C57.7845 189.451 59.6748 188.589 61.6671 188.589H222.993C224.987 188.589 226.876 189.451 228.177 190.954C229.479 192.457 230.059 194.445 229.766 196.409L215.965 289.154ZM72.2546 285.044H212.406L225.685 195.806C225.803 195.014 225.579 194.244 225.053 193.638C224.528 193.031 223.797 192.698 222.993 192.698H61.6671C60.8632 192.698 60.1318 193.032 59.6068 193.638C59.0817 194.244 58.8572 195.014 58.9752 195.806L72.2546 285.044Z" fill="#317F8B"/>
<g opacity="0.3">
<g opacity="0.3">
<g opacity="0.3">
<g opacity="0.3">
<path opacity="0.3" d="M81.9145 265.839C76.4626 253.87 72.4927 233.438 73.3874 221.413C74.2821 209.388 81.2841 213.068 83.4544 228.471C89.2295 269.463 84.348 271.183 81.9145 265.839Z" fill="white"/>
</g>
</g>
</g>
</g>
<path d="M161.106 228.547C161.282 227.011 161.486 225.458 161.183 223.896C161.048 223.727 160.924 223.553 160.79 223.384C160.343 223.223 159.908 223.014 159.444 222.898C156.173 222.057 152.858 221.724 149.49 222.013C145.098 222.39 141.067 223.739 137.601 226.52C136.345 227.523 135.201 228.656 134.03 229.755C133.716 230.053 133.474 230.177 133.033 229.976C131.996 229.506 130.878 229.296 129.743 229.24C126.698 229.102 123.981 230.082 121.447 231.667C118.7 233.39 116.487 235.693 114.425 238.159C113.548 239.203 113.889 240.368 115.195 240.807C116.02 241.075 116.844 241.338 117.669 241.607C119.644 242.244 121.615 242.875 123.584 243.511C123.58 243.572 123.585 243.603 123.576 243.634C123.56 243.672 123.543 243.716 123.516 243.754C122.694 244.806 122.894 245.78 123.76 246.695C123.853 246.796 123.933 246.917 124.015 247.027C124.469 247.621 124.932 248.222 125.413 248.84C124.757 249.345 124.111 249.774 123.541 250.293C123.253 250.554 122.999 250.933 122.89 251.309C122.705 251.916 123.021 252.536 123.563 252.854C124.138 253.199 124.729 253.184 125.265 252.8C125.944 252.319 126.593 251.797 127.283 251.272C127.935 252.128 128.553 252.938 129.173 253.738C129.884 254.649 130.374 254.805 131.476 254.501C131.677 254.439 131.875 254.396 132.112 254.338C132.128 254.573 132.147 254.762 132.157 254.938C132.297 257.775 132.427 260.617 132.583 263.446C132.655 264.788 133.718 265.421 134.935 264.846C136.034 264.33 137.131 263.784 138.208 263.202C140.691 261.857 142.949 260.21 144.751 258.02C147.007 255.264 148.255 252.187 147.671 248.55C147.646 248.407 147.766 248.162 147.891 248.088C148.998 247.378 150.134 246.713 151.242 245.997C153.746 244.371 155.758 242.259 157.332 239.736C159.471 236.306 160.651 232.543 161.106 228.547ZM125.214 240.824C122.933 240.084 120.569 239.316 118.14 238.529C120.65 235.873 123.305 233.553 126.882 232.574C128.427 232.15 130.213 232.186 131.268 232.613C129.265 235.335 127.258 238.057 125.214 240.824ZM144.394 252.499C143.815 254.341 142.708 255.84 141.345 257.178C139.651 258.821 137.679 260.047 135.547 261.166C135.419 258.557 135.287 256.004 135.158 253.505C138.382 252.256 141.534 251.037 144.703 249.811C144.825 250.68 144.675 251.602 144.394 252.499ZM156.298 235.031C155.261 237.47 153.9 239.69 151.959 241.529C150.461 242.939 148.762 244.071 146.973 245.077C142.122 247.805 136.923 249.685 131.607 251.275C131.347 251.35 131.188 251.336 131.017 251.099C130.646 250.574 130.23 250.068 129.838 249.55C129.812 249.52 129.803 249.472 129.765 249.379C129.901 249.271 130.046 249.163 130.193 249.052C133.226 246.732 136.274 244.42 139.308 242.096C140.185 241.433 140.223 240.293 139.412 239.636C138.845 239.174 138.097 239.181 137.443 239.671C135.617 241.058 133.796 242.445 131.975 243.837C130.617 244.872 129.27 245.902 127.859 246.979C127.375 246.349 126.908 245.774 126.486 245.169C126.414 245.06 126.487 244.787 126.585 244.653C128.202 242.249 129.805 239.833 131.488 237.472C133.152 235.127 135.045 232.961 137.127 230.973C139.078 229.095 141.194 227.437 143.751 226.449C145.391 225.813 147.083 225.38 148.83 225.194C148.989 225.172 149.219 225.33 149.331 225.475C151.108 227.764 152.863 230.055 154.624 232.351C155.153 233.034 155.674 233.731 156.219 234.407C156.382 234.61 156.402 234.784 156.298 235.031ZM157.351 231.831C155.596 229.54 153.882 227.312 152.165 225.073C152.167 225.022 152.182 224.963 152.19 224.907C154.189 225.146 156.193 225.39 158.217 225.631C158.179 227.803 157.857 229.792 157.351 231.831Z" fill="#317F8B"/>
<path d="M156.221 234.405C155.676 233.73 155.156 233.033 154.627 232.35C152.867 230.054 151.111 227.762 149.334 225.474C149.222 225.329 148.992 225.17 148.833 225.193C147.085 225.379 145.394 225.812 143.754 226.448C141.196 227.436 139.081 229.094 137.129 230.972C135.048 232.96 133.155 235.126 131.49 237.471C129.808 239.833 128.204 242.249 126.587 244.651C126.49 244.786 126.417 245.059 126.489 245.167C126.909 245.773 127.377 246.348 127.862 246.978C129.273 245.9 130.62 244.869 131.978 243.836C133.799 242.443 135.62 241.055 137.446 239.67C138.1 239.179 138.846 239.174 139.414 239.635C140.226 240.293 140.189 241.433 139.311 242.094C136.277 244.419 133.229 246.731 130.196 249.05C130.049 249.162 129.903 249.269 129.768 249.378C129.805 249.472 129.815 249.519 129.841 249.548C130.233 250.067 130.649 250.573 131.02 251.098C131.191 251.335 131.35 251.349 131.61 251.274C136.925 249.684 142.124 247.804 146.975 245.076C148.764 244.071 150.463 242.938 151.961 241.527C153.901 239.689 155.263 237.468 156.301 235.03C156.403 234.784 156.382 234.61 156.221 234.405ZM150.898 237.902C148.579 239.642 145.297 239.217 143.555 236.939C141.802 234.664 142.245 231.398 144.542 229.634C146.797 227.904 150.08 228.351 151.839 230.627C153.577 232.889 153.153 236.203 150.898 237.902Z" fill="white"/>
<path d="M157.351 231.829C155.595 229.542 153.88 227.312 152.165 225.073C152.17 225.02 152.182 224.965 152.189 224.907C154.189 225.148 156.193 225.391 158.22 225.632C158.181 227.801 157.856 229.792 157.351 231.829Z" fill="#DB2C2C"/>
<path d="M131.268 232.614C129.264 235.333 127.257 238.057 125.214 240.826C122.931 240.082 120.566 239.316 118.139 238.53C120.65 235.87 123.305 233.551 126.881 232.574C128.427 232.149 130.21 232.186 131.268 232.614Z" fill="#DB2C2C"/>
<path d="M141.342 257.178C139.649 258.822 137.68 260.05 135.546 261.166C135.416 258.559 135.286 256.006 135.158 253.505C138.382 252.257 141.533 251.039 144.705 249.809C144.827 250.681 144.674 251.601 144.396 252.501C143.816 254.343 142.71 255.842 141.342 257.178Z" fill="#DB2C2C"/>
<path d="M151.837 230.627C150.08 228.351 146.796 227.905 144.541 229.634C142.243 231.399 141.801 234.664 143.554 236.939C145.296 239.217 148.577 239.643 150.896 237.902C153.153 236.204 153.577 232.889 151.837 230.627ZM149.334 235.981C148.159 236.868 146.433 236.634 145.518 235.465C144.571 234.26 144.83 232.489 146.083 231.563C147.256 230.686 149.015 230.941 149.898 232.115C150.821 233.337 150.567 235.053 149.334 235.981Z" fill="#317F8B"/>
<path d="M149.332 235.981C148.157 236.868 146.432 236.634 145.514 235.463C144.572 234.26 144.827 232.489 146.08 231.563C147.256 230.689 149.012 230.939 149.896 232.113C150.819 233.336 150.568 235.054 149.332 235.981Z" fill="#22A7F0"/>
<path d="M227.012 200.91C227.012 200.91 215.874 195.646 205.415 200.368C195.399 204.89 188.313 237.085 201.29 245.24C209.299 250.274 214.751 245.827 219.282 247.133C226.003 249.069 239.791 215.92 227.012 200.91Z" fill="white"/>
<g opacity="0.35">
<path d="M232.037 221.861C230.717 235.356 223.564 248.366 219.284 247.133C214.75 245.828 209.299 250.276 201.29 245.242C195.091 241.344 193.472 231.965 194.565 222.729C195.302 228.117 197.391 232.734 201.29 235.185C209.299 240.213 214.632 237.876 219.284 237.076C225.034 236.084 229.721 229.828 232.037 221.861Z" fill="#317F8B"/>
</g>
<path d="M209.502 249.756C206.799 249.756 203.672 249.168 200.188 246.978C197.068 245.017 194.815 241.845 193.492 237.549C192.38 233.944 191.965 229.55 192.29 224.844C192.674 219.27 194.051 213.552 196.163 208.743C197.778 205.069 200.546 200.309 204.561 198.496C215.763 193.439 227.404 198.822 227.894 199.053L228.295 199.243L228.582 199.581C234.431 206.45 234.769 215.94 234.022 222.69C233.18 230.297 230.485 238.365 226.987 243.748C223.483 249.138 220.549 249.638 218.706 249.107C217.509 248.762 215.998 249.003 214.247 249.282C212.864 249.503 211.274 249.756 209.502 249.756ZM214.948 200.45C211.813 200.45 208.906 201.048 206.267 202.24C204.095 203.221 201.79 206.192 199.945 210.392C198.044 214.716 196.755 220.086 196.407 225.128C195.792 234.029 197.973 240.728 202.39 243.504C206.843 246.303 210.277 245.755 213.597 245.225C215.744 244.883 217.771 244.56 219.854 245.16C220.094 245.201 221.81 244.542 224.231 240.364C229.877 230.623 233.458 212.226 225.734 202.596C224.858 202.234 222.605 201.381 219.657 200.87C218.037 200.59 216.465 200.45 214.948 200.45Z" fill="#317F8B"/>
</svg>
